<?xml version="1.0" encoding="utf-8"?>
<!-- Generator: Adobe Illustrator 18.0.0, SVG Export Plug-In . SVG Version: 6.00 Build 0)  -->
<!DOCTYPE svg PUBLIC "-//W3C//DTD SVG 1.1//EN" "http://www.w3.org/Graphics/SVG/1.1/DTD/svg11.dtd">
<svg version="1.1" id="Layer_1" xmlns="http://www.w3.org/2000/svg" xmlns:xlink="http://www.w3.org/1999/xlink" x="0px" y="0px"
	 viewBox="0 0 60 60" enable-background="new 0 0 60 60" xml:space="preserve">
<g id="Layer_1_1_">
	<g id="XMLID_1_">
		<g>
			<path fill="#28ABE2" d="M56.1,13.8c-1.4,2.2-3.3,4-5.3,5.5c0,0.5,0.1,0.9,0.1,1.4c0,14.2-10.8,30.4-30.4,30.4
				c-6.1,0-11.7-1.8-16.4-4.8c0.7,0.2,1.6,0.2,2.5,0.2c5,0,9.6-1.7,13.3-4.6c-4.7-0.1-8.6-3.2-10-7.4c0.7,0.2,1.4,0.2,2,0.2
				c1,0,1.9-0.2,2.9-0.4C9.8,33.3,6,29,6,23.8c0-0.1,0-0.1,0-0.2c1.4,0.8,3.1,1.3,4.9,1.3c-2.9-1.9-4.8-5.2-4.8-8.8
				c0-2,0.5-3.8,1.4-5.4c5.3,6.5,13.2,10.8,22.1,11.2c-0.1-0.8-0.3-1.6-0.3-2.4c0-5.9,4.8-10.7,10.7-10.7c3.1,0,5.8,1.3,7.8,3.4
				c2.4-0.4,4.7-1.4,6.8-2.6c-0.8,2.6-2.6,4.6-4.7,5.9C52.1,15.2,54.1,14.6,56.1,13.8z"/>
		</g>
	</g>
</g>
<g id="Layer_2">
	<g id="XMLID_2_">
		<g>
			<path fill="#28ABE2" d="M56.1,13.6c-1.4,2.2-3.3,4-5.3,5.5c0,0.5,0.1,0.9,0.1,1.3C50.8,34.7,40.1,51,20.3,51
				c-6.1,0-11.7-1.8-16.4-4.8c0.8,0.1,1.6,0.2,2.5,0.2c5,0,9.6-1.7,13.3-4.6c-4.6-0.1-8.6-3.2-10-7.4c0.7,0.2,1.4,0.2,2,0.2
				c1,0,1.9-0.2,2.9-0.4C9.8,33.2,6,28.8,6,23.6c0-0.1,0-0.1,0-0.2c1.4,0.8,3.1,1.3,4.9,1.4C8,22.9,6.1,19.6,6.1,16
				c0-1.9,0.5-3.8,1.4-5.4c5.3,6.5,13.2,10.8,22.1,11.2c-0.1-0.8-0.3-1.6-0.3-2.4c0-5.9,4.8-10.7,10.7-10.7c3.1,0,5.8,1.3,7.8,3.4
				c2.4-0.4,4.7-1.3,6.8-2.6c-0.8,2.6-2.6,4.6-4.7,5.9C52.1,15,54.1,14.4,56.1,13.6z"/>
		</g>
	</g>
	<path fill="#FFFFFF" d="M46.3,10.6c0,0-0.4,0,0.6,3.3c1.1,3.3,0.9,5.1,2.6,6c1.6,0.9,2.7,0,2.7,0l5-3.9c0,0,0.5-1.1-0.7-1.9
		C55.3,13.1,55,9.6,55,9.6s-0.9-0.8-3.6,0C48.8,10.3,47.8,10.6,46.3,10.6z"/>
	<path fill="#D1D3D4" d="M47.7,12.8c0,0,2.4,6.1,4.1,6.1c-1.3,0.9,4.7-4.4,4.4-3.4c0,0-2.8,1-3.8,1c-4.7-0.2-0.4,0.8-2.6-2.5
		c-0.5-0.8,1.9-2.7,1.1-2.2C50.9,11.8,48.2,11.6,47.7,12.8z"/>
	<path fill="#D1D3D4" d="M54.1,10.4c0,0-1.3,1.1-2.4,1.7c-1.1,0.6,1.5-0.6,1.1,0.7c-0.5,1.3-1.2,3.1-0.4,2.5
		c0.8-0.6,2.3-1.3,2.8-1.3c0.5,0.1-0.8-0.4-0.7-1.9C54.4,10.6,54.1,10.4,54.1,10.4z"/>
	<polyline fill="#FFFFFF" points="31.1,13.3 47,13.3 46.8,12.8 31.4,12.8 	"/>
	<polygon fill="#FFFFFF" points="48.3,15.9 29.3,20.9 29.3,21.5 48.3,16.6 	"/>
</g>
</svg>
