<?xml version="1.0" encoding="utf-8"?>
<!-- Generator: Adobe Illustrator 18.0.0, SVG Export Plug-In . SVG Version: 6.00 Build 0)  -->
<!DOCTYPE svg PUBLIC "-//W3C//DTD SVG 1.1//EN" "http://www.w3.org/Graphics/SVG/1.1/DTD/svg11.dtd">
<svg version="1.1" id="Layer_1" xmlns="http://www.w3.org/2000/svg" xmlns:xlink="http://www.w3.org/1999/xlink" x="0px" y="0px"
	 viewBox="0 0 60 60" enable-background="new 0 0 60 60" xml:space="preserve">
<path id="palm" opacity="0.5" fill="#FFFFFF" d="M27,57.6v-4.6c0,0-0.9-3.2-2.4-4.6c-1.5-1.4-2.9-2.9-3.2-3.6c0,0-0.6,0.3-1.7-0.8
	c-1.1-1.1-4.1-5.9-4.1-5.9l-1.5-2c0,0-1.1-1.5-2.9-3C9.3,31.6,9,33,7.8,31.4c-1.2-1.5,1.4-2.9,2.3-3.2s4.4,0.3,6.1,2
	s1.7,1.7,1.7,1.7l2.4,2.6l1.2,0.5l1.5-2.4l-0.6-5.2c0,0-1.4-5.8-1.7-10.9s-1.1-13,2.3-13.3c3.3-0.3,2.3,5.8,2.4,7.9
	c0.2,2.1,1.8,11.9,2.7,12.7s1.5,0.1,1.5,0.1l0.9-17.1c0,0-1.1-5.5,2.4-5.8c2.1-0.2,2,3.5,2,4.9s0.6,17.1,0.6,17.1l1.2,0.3
	c0,0,0.9-5,1.4-7.2c0.5-2.1,1.4-5.5,1.2-7s-0.3-5.3,2.3-5.3s2,4.1,2.1,5.5c0.2,1.2-0.3,7-0.3,8.4S42,26,42.5,26.5
	c0.5,0.4,4.7-6.4,5.3-9c0.6-2.6,0.5-6.9,3.2-6.6c2.7,0.3,1,6.4,0.9,7c-0.1,0.6-1.5,5.3-2,6.7c-0.5,1.4-1.8,3.3-2.3,4.6
	c-0.5,1.2,0.9,5.3,0,10.6C46.7,45,44,51.6,44,51.6l1.4,4.7c0,0-3.9,1.5-8.7,1.8C31.9,58.4,27,57.6,27,57.6z"/>
</svg>
