<?xml version="1.0" encoding="utf-8"?>
<!-- Generator: Adobe Illustrator 18.0.0, SVG Export Plug-In . SVG Version: 6.00 Build 0)  -->
<!DOCTYPE svg PUBLIC "-//W3C//DTD SVG 1.1//EN" "http://www.w3.org/Graphics/SVG/1.1/DTD/svg11.dtd">
<svg version="1.1" id="Layer_1" xmlns="http://www.w3.org/2000/svg" xmlns:xlink="http://www.w3.org/1999/xlink" x="0px" y="0px"
	 viewBox="0 0 60 60" enable-background="new 0 0 60 60" xml:space="preserve">
<g opacity="0.5">
	<path fill="#FFFFFF" d="M41.9,19.7c0.6,1,1.8,1.4,1.8,1.4l-4.3-4.9c1.3-0.1,5.4,1,6.6,2.7c0.4,0.6,1.4,3.4,1.6,4.6
		c0.2,2.8,0.5,11.3-0.7,14.1c-0.9,2.1,1.1,6.9,1.2,7.7c0.1,0.7,0.9,2.9-0.4,4.9c-1.8,2.8-5,3.9-8,4.5c-3.4,0.7-6.7,0.1-8.2-0.5
		c-1.5-0.7-1.4-2-1.6-3.3c-0.3-1.4-2.9-3.9-5-4.8c-2.2-0.9-7.7-5-8.1-6s-2.6-4.3-2.9-5.3c-0.3-0.9-2.2-3.8-2.2-4.8
		c-0.1-1,0.3-2.1,0.3-3.7c0-1.3,0.2-4.5,0.5-4.7c0.9-0.7,2.9,0.2,3.5,1c0.9,1.2,1.3,2.9,1.6,3.8c0.3,0.9,0.5,2.3,0.7,2.6
		c0.7,0.8,3.1,4.1,3.5,4.3c0.5,0.3,2.5-2.6,4.6-3c-0.3-3.3,2.3-2.4,0.4-6.6c-0.9-2-1.9-3.9-2.3-3.8c-0.4,0.1-1.7-0.7-2.4-0.7
		s-1.9-0.2-2.2-0.1c-0.8,0.1-2,0.3-2.9,0.5c-1.6,0.3-2.6-0.2-2.6-1.3c0-0.8,1.5-1.6,2.1-2.2c1.3-1.3,3.3-1.5,3.4-1.6
		c1.1-0.6,6.9-0.5,7.6,0.1c1.4,1,5,2.9,6.7,7c0.2,0.5,0.8-3.1-4.2-5.8c0,0,0.4-0.1,1-0.1c1.2-0.1,3.3-2.4,4.5-1.9
		c1.3,0.5,2.9,1,3.6,1.9C39.5,16.4,41.9,19.7,41.9,19.7z"/>
</g>
</svg>
