<?xml version="1.0" encoding="utf-8"?>
<!-- Generator: Adobe Illustrator 18.0.0, SVG Export Plug-In . SVG Version: 6.00 Build 0)  -->
<!DOCTYPE svg PUBLIC "-//W3C//DTD SVG 1.1//EN" "http://www.w3.org/Graphics/SVG/1.1/DTD/svg11.dtd">
<svg version="1.1" xmlns="http://www.w3.org/2000/svg" xmlns:xlink="http://www.w3.org/1999/xlink" x="0px" y="0px"
	 viewBox="0 0 150 150" enable-background="new 0 0 150 150" xml:space="preserve">
<g id="Layer_1">
	<g id="XMLID_1_">
		<g>
			<path fill="#28ABE2" d="M134.7,38.3c-3.3,4.9-7.4,9.1-12.1,12.6c0,1,0.1,2.1,0.1,3.1c0,32.1-24.4,69.1-69.1,69.1
				c-13.7,0-26.5-4-37.2-10.9c1.9,0.2,3.8,0.3,5.8,0.3c11.4,0,21.8-3.9,30.2-10.4c-10.6-0.2-19.6-7.2-22.7-16.9
				c1.5,0.3,3,0.4,4.6,0.4c2.2,0,4.4-0.3,6.4-0.8c-11.1-2.2-19.5-12-19.5-23.8c0-0.1,0-0.2,0-0.3c3.3,1.8,7,2.9,11,3
				C25.6,59.4,21.3,52,21.3,43.6c0-4.5,1.2-8.6,3.3-12.2c12,14.7,29.9,24.4,50,25.4c-0.4-1.8-0.6-3.6-0.6-5.5
				c0-13.4,10.9-24.3,24.3-24.3c7,0,13.3,2.9,17.7,7.7c5.5-1.1,10.7-3.1,15.4-5.9c-1.8,5.7-5.7,10.4-10.7,13.4
				C125.6,41.5,130.3,40.2,134.7,38.3z"/>
		</g>
		<g>
		</g>
	</g>
</g>
<g id="Layer_2" display="none">
	<g id="XMLID_2_" display="inline">
		<g>
			<path fill="#EB2026" d="M134.7,38.3c-3.3,4.9-7.4,9.1-12.1,12.6c0,1,0.1,2.1,0.1,3.1c0,32.1-24.4,69.1-69.1,69.1
				c-13.7,0-26.5-4-37.2-10.9c1.9,0.2,3.8,0.3,5.8,0.3c11.4,0,21.8-3.9,30.2-10.4c-10.6-0.2-19.6-7.2-22.7-16.9
				c1.5,0.3,3,0.4,4.6,0.4c2.2,0,4.4-0.3,6.4-0.8c-11.1-2.2-19.5-12-19.5-23.8c0-0.1,0-0.2,0-0.3c3.3,1.8,7,2.9,11,3
				C25.6,59.4,21.3,52,21.3,43.6c0-4.5,1.2-8.6,3.3-12.2c12,14.7,29.9,24.4,50,25.4c-0.4-1.8-0.6-3.6-0.6-5.5
				c0-13.4,10.9-24.3,24.3-24.3c7,0,13.3,2.9,17.7,7.7c5.5-1.1,10.7-3.1,15.4-5.9c-1.8,5.7-5.7,10.4-10.7,13.4
				C125.6,41.5,130.3,40.2,134.7,38.3z"/>
		</g>
		<g>
		</g>
	</g>
	<path display="inline" fill="#FFFFFF" d="M111.8,31c0,0-0.9,0,1.4,7.5s2.1,11.6,5.8,13.6s6.1,0,6.1,0l11.2-8.9c0,0,1.2-2.4-1.5-4.4
		c-2.8-2-3.3-10.1-3.3-10.1s-2.1-1.7-8.1,0C117.2,30.4,115.3,31.1,111.8,31z"/>
	<path display="inline" fill="#D1D3D4" d="M114.9,35.9c0,0,5.4,13.7,9.3,13.7c-3,2.1,10.5-9.8,10-7.7c0,0-6.3,2.4-8.7,2.3
		c-10.7-0.3-0.9,1.9-5.9-5.6c-1.2-1.8,4.2-6.1,2.6-5C122.1,33.7,116.1,33.4,114.9,35.9z"/>
	<path display="inline" fill="#D1D3D4" d="M129.6,30.5c0,0-2.9,2.6-5.5,3.9c-2.6,1.3,3.4-1.4,2.3,1.5s-2.7,7-0.9,5.7
		s5.3-3.1,6.4-2.9s-1.7-0.8-1.6-4.2C130.2,31.2,129.6,30.5,129.6,30.5z"/>
	<polyline display="inline" fill="#FFFFFF" points="77.1,37.3 113.3,37.3 112.9,36.2 78,36.2 	"/>
	<polygon display="inline" fill="#FFFFFF" points="116.3,43.1 73.2,54.4 73.2,55.7 116.3,44.7 	"/>
</g>
</svg>
