<?xml version="1.0" encoding="utf-8"?>
<!-- Generator: Adobe Illustrator 18.0.0, SVG Export Plug-In . SVG Version: 6.00 Build 0)  -->
<!DOCTYPE svg PUBLIC "-//W3C//DTD SVG 1.1//EN" "http://www.w3.org/Graphics/SVG/1.1/DTD/svg11.dtd">
<svg version="1.1" id="Layer_1" xmlns="http://www.w3.org/2000/svg" xmlns:xlink="http://www.w3.org/1999/xlink" x="0px" y="0px"
	 viewBox="0 0 130 130" enable-background="new 0 0 130 130" xml:space="preserve">
<g opacity="0.23">
	<g>
		<title>Layer 1</title>
		<path id="path5_1_" d="M68.2,34c-0.3-0.2-0.6-0.5-0.8-0.7c0.3-0.2,0.5-0.6,0.8-0.7c-0.3-0.2-0.5-0.6-0.8-0.8
			c0.3-0.2,0.5-0.6,0.8-0.7c-0.3-0.2-0.5-0.6-0.8-0.8c0.3-0.2,0.5-0.6,0.8-0.7c-0.6-1-1.6-0.8-2.6-0.8c-1,0-0.6,0.6-0.6,1.4
			c0,2.3,0,4.6,0,6.8C66,36,67.1,35,68.2,34"/>
		<path id="path7_1_" d="M39.7,80.7c0,0.9-0.4,1.7,0.6,1.7c1.2,0,2.3,0,3.5,0c4,0,8.1,0,12.1,0c4.3,0,8.6,0,12.9,0
			c0.8,0,5.4,0.6,6,0c0.5-0.6,0.2-1.7-0.6-1.7c-1.2,0-2.3,0-3.5,0c-4,0-8.1,0-12.1,0C52.2,80.7,45.9,80.7,39.7,80.7"/>
		<line id="line9_1_" fill="none" x1="74.7" y1="81.1" x2="39.7" y2="81.1"/>
		<path id="path11_1_" d="M51.8,61.3c3.3,0,6.6,0,9.8,0c0.6,0,2.4-0.4,2.4,0.4c0,2,0,3.9,0,5.9c-2.4-0.9-4.7-1.8-7.1-2.7
			C55.5,64.3,51.1,63.9,51.8,61.3"/>
		<path id="path13_1_" d="M55.4,64.1L55.4,64.1L55.4,64.1z"/>
		<path id="path15_1_" d="M46.6,61.2c-2.1,7.2,14.7,12.7,17.5,5.8C58.2,65,52.4,63.1,46.6,61.2"/>
		<line id="line17_1_" fill="none" x1="64.1" y1="66.9" x2="46.6" y2="61.2"/>
		<path id="path19_1_" d="M55.4,64.1L55.4,64.1L55.4,64.1z"/>
		<path id="path21_1_" d="M62.7,69.2c-1.5-1-6.3-0.5-7.5,0.9C55,68.3,62.4,67.4,62.7,69.2"/>
		<path id="path23_1_" d="M58.9,69.1c1.4-0.2,2.8,0,4,0.1C62.2,68.3,59.2,68.2,58.9,69.1"/>
		<path id="path25_1_" d="M55,70c0.9-0.1,3.8-0.7,3.9-1.4C57.7,68.8,55.6,68.9,55,70c0.1,0,0.3,0,0.4,0C55.3,70,55.1,70,55,70"/>
		<path id="path27_1_" d="M54.9,69.6c0.2,0.2-0.1,0.6,0.5,0.4C55.5,69.4,55.2,69.8,54.9,69.6"/>
		<path id="path29_1_" d="M58.8,68.3c-1.2,0.2-3.3,0.2-3.9,1.4C55.9,69.5,58.6,68.9,58.8,68.3"/>
		<path id="path31_1_" d="M62.8,68.7c-0.6-0.8-3.7-0.9-4,0C60.2,68.5,61.7,68.8,62.8,68.7"/>
		<path id="path33_1_" d="M62.5,69.2c0.1,0,0.3,0,0.4,0c0-0.2-0.1-0.3-0.1-0.5c-0.3,0.6-0.5,0,0.1,0.5
			C62.8,69.2,62.6,69.2,62.5,69.2"/>
		<path id="path35_1_" d="M59,70.3c0.4-0.1,3.8-0.4,3.7-1.1c-0.1-0.7-3.4-0.3-3.8-0.3c-0.4,0-3.8,0.4-3.7,1.1
			C55.3,70.8,58.6,70.4,59,70.3"/>
		<path id="path37_1_" d="M62.5,69.2c-0.9,0.5-3.3,0.6-3.5,1.4c1.2-0.2,3.3-0.2,3.9-1.4C62.8,69.2,62.6,69.2,62.5,69.2"/>
		<path id="path39_1_" d="M58.9,69.1c1.4-0.2,2.8,0,4,0.1C62.2,68.3,59.2,68.2,58.9,69.1"/>
		<path id="path41_1_" d="M55.4,70c0.9-0.5,3.3-0.6,3.5-1.4c-1.2,0.2-3.3,0.2-3.9,1.4C55.1,70,55.3,70,55.4,70"/>
		<path id="path43_1_" d="M59,70.1c-1.4,0.2-2.8,0-4-0.1C55.6,71,58.8,71,59,70.1"/>
		<path id="path45_1_" fill="none" d="M59,70.3c0.4-0.1,3.8-0.4,3.7-1.1c-0.1-0.7-3.4-0.3-3.8-0.3c-0.4,0-3.8,0.4-3.7,1.1
			C55.3,70.8,58.6,70.4,59,70.3"/>
		<path id="path47_1_" d="M62.3,69.2c0.1,0.7,0.1,1.3,0.2,2c-1.4-1-5.6-0.4-6.8,0.8c-0.2-1.9-0.5-1.9,1.4-2.1
			C58.9,69.6,60.6,69.4,62.3,69.2"/>
		<path id="path49_1_" d="M62.3,71.2c0.1,0,0.3,0,0.4,0c-0.1-0.7,0.2-1.9-0.6-2c0.1,0.7-0.2,1.9,0.6,2
			C62.6,71.2,62.5,71.2,62.3,71.2"/>
		<path id="path51_1_" d="M59.1,71.1c1.3-0.2,2.5,0,3.7,0C62.1,70.3,59.3,70.2,59.1,71.1"/>
		<path id="path53_1_" d="M55.6,71.9c0.8-0.1,3.4-0.6,3.5-1.2C58,70.8,56.2,70.9,55.6,71.9c0.1,0,0.3,0,0.4,0
			C55.9,71.9,55.7,71.9,55.6,71.9"/>
		<path id="path55_1_" d="M55.6,70c-0.2,0.3-0.4,1.8,0.4,1.9C55.9,71.2,55.9,70.4,55.6,70"/>
		<path id="path57_1_" d="M59.2,72.2c0.4,0,3.4-0.4,3.3-1c-0.1-0.7-3.1-0.3-3.4-0.3c-0.4,0-3.4,0.4-3.3,1
			C55.8,72.6,58.9,72.2,59.2,72.2"/>
		<path id="path59_1_" d="M62.3,71.2c-0.7,0.4-2.9,0.5-3.1,1.2c1.1-0.1,2.9-0.2,3.5-1.2C62.6,71.2,62.5,71.2,62.3,71.2"/>
		<path id="path61_1_" d="M59.1,71.1c1.3-0.2,2.5,0,3.7,0C62.1,70.3,59.3,70.2,59.1,71.1"/>
		<path id="path63_1_" d="M56,71.9c0.7-0.4,2.9-0.5,3.1-1.2c-1.1,0.1-2.9,0.2-3.5,1.2C55.7,71.9,55.9,71.9,56,71.9"/>
		<path id="path65_1_" d="M59.2,72c-1.2,0.2-2.5,0-3.7,0C56.2,72.7,59.1,72.8,59.2,72"/>
		<path id="path67_1_" fill="none" d="M59.2,72.2c0.4,0,3.4-0.4,3.3-1c-0.1-0.7-3.1-0.3-3.4-0.3c-0.4,0-3.4,0.4-3.3,1
			C55.8,72.6,58.9,72.2,59.2,72.2"/>
		<path id="path69_1_" d="M62.2,71.2c0,0.2,0.1,0.3,0.1,0.5c-1.3-0.8-5-0.4-6.1,0.7c0-0.2-0.1-0.3-0.1-0.5
			C58.1,71.7,60.2,71.5,62.2,71.2"/>
		<path id="path71_1_" d="M62.1,71.7c0.1-0.2,0.5,0.1,0.3-0.5c-0.1,0-0.2,0-0.3,0C62.4,71.8,62.1,71.8,62.1,71.7"/>
		<path id="path73_1_" d="M59.2,71.7c1.1-0.1,2.2-0.1,3.3,0C61.8,71,59.5,70.9,59.2,71.7"/>
		<path id="path75_1_" d="M56,72.4c1-0.3,2.1-0.6,3.1-0.7c0-0.1,0-0.2,0-0.3C58.2,71.5,56.6,71.5,56,72.4
			C56.6,72.4,56.2,72.5,56,72.4"/>
		<path id="path77_1_" d="M56.1,71.9c0-0.1-0.2,0.3-0.1,0.5c0.1,0,0.2,0,0.3,0C56.4,72.2,56.1,71.9,56.1,71.9"/>
		<path id="path79_1_" d="M59.3,72.7c0.3-0.1,3-0.3,3-0.9c-0.1-0.6-2.8-0.3-3.1-0.2c-0.4,0-3,0.3-3,0.9C56.3,73,59,72.7,59.3,72.7"
			/>
		<path id="path81_1_" d="M62.1,71.7c-0.8,0.5-1.9,0.6-2.8,0.8c0,0.1,0,0.2,0,0.3C59.9,72.8,63,72.3,62.1,71.7"/>
		<path id="path83_1_" d="M59.2,71.7c1.1-0.1,2.2-0.1,3.3,0C61.8,71,59.5,70.9,59.2,71.7"/>
		<path id="path85_1_" d="M56.4,72.4c0.8-0.5,1.9-0.6,2.8-0.7c0-0.1,0-0.2,0-0.3C58.6,71.4,55.5,71.9,56.4,72.4"/>
		<path id="path87_1_" d="M59.3,72.5c-1.1,0.1-2.2,0-3.3-0.1C56.7,73.1,58.9,73.3,59.3,72.5"/>
		<path id="path89_1_" fill="none" d="M59.3,72.7c0.3-0.1,3-0.3,3-0.9c-0.1-0.6-2.8-0.3-3.1-0.2c-0.4,0-3,0.3-3,0.9
			C56.3,73,59,72.7,59.3,72.7"/>
		<path id="path91_1_" fill="none" d="M62.4,75.6c-1.3-0.7-4.5-0.4-5.5,0.6"/>
		<path id="path93_1_" d="M62,71.5c0.1,1.3,0.3,2.7,0.4,4c-1.3-0.8-4.5-0.4-5.5,0.7c-0.1-0.8-0.8-4-0.1-4.1
			C58.6,71.9,60.3,71.7,62,71.5"/>
		<path id="path95_1_" d="M62.2,75.6c0.7-0.3,0-2.8-0.1-3.8c-0.1,0-0.2,0-0.3,0c0.1,1,0,3.5,0.8,3.8C62.5,75.6,62.4,75.6,62.2,75.6
			c0.1,0.1,0,0.2,0.3,0.1C62.6,75.4,62.4,75.7,62.2,75.6"/>
		<path id="path97_1_" d="M59.6,75.5c1-0.1,2.1,0,3,0C62,74.9,59.9,74.8,59.6,75.5"/>
		<path id="path99_1_" d="M56.8,76.2c0.9-0.2,1.9-0.6,2.8-0.7c0-0.1,0-0.2,0-0.3C58.7,75.3,57.3,75.4,56.8,76.2c0.1,0,0.2,0,0.3,0
			C57,76.2,56.9,76.2,56.8,76.2c0.2,0.1,0,0.2,0.3,0.1C57.1,76,56.9,76.3,56.8,76.2"/>
		<path id="path101_1_" d="M56.5,72.4c-0.4,0.7,0.1,2.8,0.3,3.8c0.1,0,0.2,0,0.3,0C57,75.1,57.1,73.1,56.5,72.4"/>
		<path id="path103_1_" d="M61.5,77c0.6-1.1,1.4-2-0.1-2c-0.9,0-1.9,0-2.8,0.3c-0.4,0.1-2,0.4-1.4,1C58.6,77.8,59.5,77.2,61.5,77"/>
		<path id="path105_1_" d="M59.9,77.6c0.6,0,1.1-0.2,1.6-0.4c-0.8-0.5-2.5-0.2-3.2,0.3C58.7,77.6,59.3,77.7,59.9,77.6"/>
		<path id="path107_1_" fill="none" d="M59.9,77.6c0.6,0,1.1-0.2,1.6-0.4c-0.8-0.5-2.5-0.2-3.2,0.3C58.7,77.6,59.3,77.7,59.9,77.6"
			/>
		<path id="path109_1_" fill="none" d="M59.9,77.6c0.6,0,1.1-0.2,1.6-0.4c-0.8-0.5-2.5-0.2-3.2,0.3C58.7,77.6,59.3,77.7,59.9,77.6"
			/>
		<path id="path111_1_" fill="none" d="M62.4,75.6c-1.3-0.7-4.5-0.4-5.5,0.6"/>
		<path id="path113_1_" d="M55.4,64.1L55.4,64.1L55.4,64.1z"/>
		<path id="path115_1_" d="M55.4,64.1L55.4,64.1L55.4,64.1z"/>
		<path id="path117_1_" d="M46.8,63.5c1.5,0,6.5,4.1,5.2,5.5c-0.2-1.8-3.6-5.2-5.5-5.1C46.6,63.7,46.7,63.6,46.8,63.5"/>
		<path id="path119_1_" d="M50.2,65.4c-0.9-0.8-2.3-2.4-3.6-2c1,0.8,2.3,1.3,3.2,2.4C49.9,65.6,50.1,65.5,50.2,65.4"/>
		<path id="path121_1_" d="M52.4,68.8c0.3-0.8-1.9-3.7-2.6-3.1C50.8,66.7,51.6,68.1,52.4,68.8"/>
		<path id="path123_1_" d="M51.8,68.9c0.3,0,0.3,0.5,0.6-0.1C52.2,68.8,52,68.8,51.8,68.9c0.1,0.1,0.2,0.2,0.3,0.3
			C52,69,51.9,68.9,51.8,68.9"/>
		<path id="path125_1_" d="M49.5,66c1.1,0.9,1.6,2.2,2.6,3.1C52.3,68.1,50.2,65.4,49.5,66"/>
		<path id="path127_1_" d="M46.3,63.7c0.8,0.5,3.1,2.3,3.6,2C49,64.9,47.6,63.3,46.3,63.7c0.1,0.1,0.2,0.2,0.3,0.3
			C46.5,63.9,46.4,63.8,46.3,63.7"/>
		<path id="path129_1_" d="M46.6,63.3c0,0.1-0.2,0.3-0.3,0.4c0.5,0.2,0.2,0.2,0.6-0.1C47,63.6,46.6,63.4,46.6,63.3"/>
		<path id="path131_1_" d="M48.7,66.9c-0.3-0.3-2.6-2.4-2.3-2.9c0.4-0.8,2.7,1.4,3,1.7c0.4,0.4,2.9,2.5,2.6,3.2
			C51.6,69.7,49.1,67.2,48.7,66.9"/>
		<path id="path133_1_" d="M46.3,63.7c-0.2,1.2,1.4,2.6,2.3,3.4C49,66.7,46.8,64.2,46.3,63.7"/>
		<path id="path135_1_" d="M49.9,65.7c-0.9-0.8-2.3-2.4-3.6-2C47,64.3,49.4,66,49.9,65.7"/>
		<path id="path137_1_" d="M52.1,69.1c0.1-1-1.9-3.8-2.6-3.1C50.6,67,51.2,68.2,52.1,69.1"/>
		<path id="path139_1_" d="M48.6,67.1c0.8,0.7,2.4,2.5,3.6,2c-1-0.7-2.3-1.4-3.2-2.4C48.8,66.8,48.7,67,48.6,67.1"/>
		<path id="path141_1_" fill="none" d="M48.7,66.9c-0.3-0.3-2.6-2.4-2.3-2.9c0.4-0.8,2.7,1.4,3,1.7c0.4,0.4,2.9,2.5,2.6,3.2
			C51.6,69.7,49.1,67.2,48.7,66.9"/>
		<path id="path143_1_" d="M46.8,64c-0.4,0.5-0.9,0.9-1.3,1.4c1.7,0.1,4.7,3.1,4.9,4.7c1.3-1.4,1.5-1.2,0.2-2.5
			C49.3,66.4,48,65.2,46.8,64"/>
		<path id="path145_1_" d="M45.3,65.3c0.6,0.4,1.1-0.6,1.6-1.1c-0.1-0.1-0.2-0.2-0.3-0.3C46.2,64.3,45.8,64.8,45.3,65.3
			c0.1,0.1,0.2,0.2,0.3,0.3C45.5,65.5,45.4,65.4,45.3,65.3"/>
		<path id="path147_1_" d="M48.5,67.2c-0.7-0.8-2.1-2.2-3.2-1.9C45.9,65.7,47.9,67.5,48.5,67.2"/>
		<path id="path149_1_" d="M50.2,70c0.1,0.1,0.2,0.2,0.3,0.3c0.1-1.2-1.3-2.2-2.1-3.1c-0.1,0.1-0.2,0.2-0.3,0.3
			c0.9,0.9,1.5,2,2.3,2.8C50.4,70.2,50.3,70.1,50.2,70"/>
		<path id="path151_1_" d="M51.7,68.7c-0.5,0.1-1,0.8-1.5,1.3C50.9,70.4,51.7,69.1,51.7,68.7"/>
		<path id="path153_1_" d="M47.4,68.2c-0.3-0.3-2.5-2.3-2-2.8c0.5-0.5,2.8,1.9,3.1,2.1c0.2,0.2,2.2,2.1,1.8,2.6
			C49.9,70.6,47.7,68.5,47.4,68.2"/>
		<path id="path155_1_" d="M45.3,65.3c-0.2,1.2,1.3,2.3,2,3.1c0.1-0.1,0.2-0.2,0.3-0.3C46.7,67.2,46.1,66.2,45.3,65.3"/>
		<path id="path157_1_" d="M48.6,67.5c-0.7-0.9-2.2-2.5-3.3-2.2C46,65.8,48.1,67.8,48.6,67.5"/>
		<path id="path159_1_" d="M50.5,70.3c0.2-1.1-1.3-2.3-2-3.1c-0.1,0.1-0.2,0.2-0.3,0.3C49.1,68.3,49.8,69.4,50.5,70.3"/>
		<path id="path161_1_" d="M47.3,68.3c0.7,0.8,2.1,2.2,3.2,1.9C49.8,69.8,47.9,68.1,47.3,68.3"/>
		<path id="path163_1_" fill="none" d="M47.4,68.2c-0.3-0.3-2.5-2.3-2-2.8c0.5-0.5,2.8,1.9,3.1,2.1c0.2,0.2,2.2,2.1,1.8,2.6
			C49.9,70.6,47.7,68.5,47.4,68.2"/>
		<path id="path165_1_" d="M45.7,65.7c-0.1,0.1-0.3,0.3-0.4,0.4c1.6,0.1,4.2,2.6,4.5,4.2C50.5,69.5,46.5,66.5,45.7,65.7"/>
		<path id="path167_1_" d="M45.2,66c0.2-0.1,0.3,0.5,0.6-0.1c-0.1-0.1-0.2-0.2-0.3-0.3C45.4,65.7,45.3,65.8,45.2,66
			C45.6,66.4,45.2,65.9,45.2,66"/>
		<path id="path169_1_" d="M48,67.6c-0.8-0.7-1.8-1.9-2.9-1.7C45.8,66.5,47.5,67.8,48,67.6"/>
		<path id="path171_1_" d="M49.6,70.2c1,0.3-1.1-2.1-1.6-2.6c-0.1,0.1-0.2,0.2-0.3,0.3c0.5,0.5,1,1,1.4,1.6
			C49.4,69.7,50.1,70.8,49.6,70.2"/>
		<path id="path173_1_" d="M50.1,69.9c0.1-0.1-0.4,0-0.5,0.3c0.1,0.1,0.2,0.2,0.3,0.3C50.1,70.3,50.1,69.9,50.1,69.9"/>
		<path id="path175_1_" d="M47.1,68.6c-0.3-0.2-2.1-1.9-1.9-2.4c0.4-0.7,2.4,1.2,2.7,1.5c0.3,0.2,2.1,1.9,1.9,2.4
			C49.4,70.8,47.4,68.9,47.1,68.6"/>
		<path id="path177_1_" d="M45.2,66c-0.1,1.1,1.1,2,1.8,2.8c0.1-0.1,0.2-0.2,0.3-0.3C46.4,67.7,45.8,66.8,45.2,66"/>
		<path id="path179_1_" d="M48,67.6c-0.8-0.7-1.8-1.9-2.9-1.7C45.8,66.5,47.5,67.8,48,67.6"/>
		<path id="path181_1_" d="M49.9,70.4c0.1-1.1-1.1-2.1-1.8-2.8c-0.1,0.1-0.2,0.2-0.3,0.3C48.6,68.6,49.2,69.6,49.9,70.4"/>
		<path id="path183_1_" d="M47,68.7c0.7,0.7,1.8,1.9,2.9,1.7C49.2,69.9,47.5,68.5,47,68.7"/>
		<path id="path185_1_" fill="none" d="M47.1,68.6c-0.3-0.2-2.1-1.9-1.9-2.4c0.4-0.7,2.4,1.2,2.7,1.5c0.3,0.2,2.1,1.9,1.9,2.4
			C49.4,70.8,47.4,68.9,47.1,68.6"/>
		<path id="path187_1_" fill="none" d="M42.9,69.1c1.5,0.3,3.7,2.3,4,3.8"/>
		<path id="path189_1_" d="M45.5,66.3c-0.9,0.9-1.8,1.8-2.6,2.8c1.5,0.3,3.7,2.3,4,3.8c0.5-0.5,2.9-2.5,2.3-3
			C48,68.7,46.8,67.5,45.5,66.3"/>
		<path id="path191_1_" d="M42.8,69c0.8,0.2,2.2-1.8,2.9-2.6c-0.1-0.1-0.2-0.2-0.3-0.3C44.5,67.1,43.7,68,42.8,69
			c0.1,0,0.2,0.1,0.3,0.2C42.9,69.1,42.9,69,42.8,69c0.1,0.1-0.1,0.1,0.1,0.3C43.2,69.1,42.8,69.1,42.8,69"/>
		<path id="path193_1_" d="M45.4,70.4c-0.7-0.6-1.7-1.6-2.6-1.4C43.4,69.4,44.9,70.7,45.4,70.4"/>
		<path id="path195_1_" d="M46.8,72.7c0.9,0.1-1-1.9-1.4-2.3c-0.1,0.1-0.2,0.2-0.3,0.3c0.8,0.7,1.3,1.5,1.9,2.3
			C46.9,72.9,46.9,72.8,46.8,72.7c0,0,0.1,0.4,0.2,0.3C47.1,72.8,46.9,72.9,46.8,72.7"/>
		<path id="path197_1_" d="M49.5,70.1c-0.8,0.1-2,1.9-2.7,2.6c0.1,0.1,0.2,0.2,0.3,0.3C47.7,72.2,49.4,70.9,49.5,70.1"/>
		<path id="path199_1_" d="M42.7,70.8c0.1-1.3-0.1-2.1,1.1-1.3c0.8,0.5,1.5,1.2,2.1,1.8c0.3,0.3,1.4,1.5,0.6,1.6
			C44.6,73.1,44.2,72.2,42.7,70.8"/>
		<path id="path201_1_" d="M43.7,72.2c-0.4-0.3-0.8-0.8-1-1.3c0.9,0.2,2,1.3,2.4,2.2C44.6,72.9,44.1,72.6,43.7,72.2"/>
		<path id="path203_1_" fill="none" d="M43.7,72.2c-0.4-0.3-0.8-0.8-1-1.3c0.9,0.2,2,1.3,2.4,2.2C44.6,72.9,44.1,72.6,43.7,72.2"/>
		<path id="path205_1_" fill="none" d="M43.7,72.2c-0.4-0.3-0.8-0.8-1-1.3c0.9,0.2,2,1.3,2.4,2.2C44.6,72.9,44.1,72.6,43.7,72.2"/>
		<path id="path207_1_" fill="none" d="M42.9,69.1c1.5,0.3,3.7,2.3,4,3.8"/>
		<path id="path209_1_" d="M65.2,61.5c0-8,0-16,0-24c0-3.4,0-6.8,0-10.3c0-0.5-9.3-0.3-10.4-0.3c-0.3,0-2.9-0.2-2.9,0.1
			c0,1.2,0,2.3,0,3.5c0,4.9,0,9.7,0,14.6c0,4.6,0,9.2,0,13.8c0,0.8,0,1.7,0,2.5c0,0,4.4,0,4.7,0C59.5,61.5,62.3,61.5,65.2,61.5"/>
		<path id="path211_1_" fill="none" d="M65.2,62.1c0-8.1,0-16.2,0-24.3c0-3.5,0-7,0-10.4c0-0.6-9.3-0.3-10.4-0.3
			c-0.3,0-2.9-0.2-2.9,0.1c0,1.2,0,2.4,0,3.6c0,4.9,0,9.9,0,14.8c0,4.7,0,9.3,0,14c0,0.8,0,1.7,0,2.5c0,0,4.4,0,4.7,0
			C59.5,62.1,62.3,62.1,65.2,62.1"/>
		<path id="path213_1_" d="M53.8,10.2c0,4.5,0,9,0,13.4c0,2,0.2,1.6,2.3,1.6c1.2,0,6.4,0.8,7.2,0c0.5-0.5,0-4.6,0-5.3
			c0-2.7,0-5.4,0-8.2c0-2-0.2-1.6-2.3-1.6C58.6,10.2,56.2,10.2,53.8,10.2"/>
		<path id="path215_1_" fill="none" d="M53.8,9.2c0,4.8,0,9.5,0,14.3c0,2.1,0.2,1.7,2.3,1.7c1.2,0,6.4,0.8,7.2,0
			c0.5-0.5,0-4.9,0-5.6c0-2.9,0-5.8,0-8.7c0-2.1-0.2-1.7-2.3-1.7C58.6,9.2,56.2,9.2,53.8,9.2"/>
		<path id="path217_1_" d="M65.2,27.2c-2.2-2.5-2.9-2.1-6-2.1c-1.6,0-3.3,0-4.9,0c-1,0-1.7,1.4-2.3,2.1
			C56.4,27.2,60.8,27.2,65.2,27.2"/>
		<line id="line219_1_" fill="none" x1="63.3" y1="25.2" x2="53.8" y2="25.2"/>
		<line id="line221_1_" fill="none" x1="52" y1="27.1" x2="65.2" y2="27.1"/>
		<path id="path223_1_" d="M70.8,43.3c0,4.3,0,8.7,0,13c0,0.6,0.4,3.9,0,4.3c-0.3,0.3-5.6,0.3-5.9,0c-0.4-0.4,0-3.7,0-4.3
			c0-2.9,0-5.8,0-8.7c0-0.6-0.4-3.9,0-4.3C65.6,42.7,69.8,43.3,70.8,43.3"/>
		<path id="path225_1_" d="M68.4,85.7c6.3,0,12.6,0,18.9,0c2.1,0,3.5-3.2,4.2-5c1.1-2.9,0.9-5.8,0.6-8.8C91,60.9,82.4,51.9,81.1,41
			c0,5.3,0,10.5,0,15.8c0,3.9,0.6,7.8,0.6,11.7c0,4-1.2,8.2-3.8,11.4c-1.7,2-2.9,2.6-5.4,2.6c-1.3,0-2.7,0-4,0
			C68.3,82.5,68.4,85.3,68.4,85.7"/>
		<path id="path227_1_" d="M70.5,63.5c0-7.2,0-14.4,0-21.6c0-0.9-0.5-6,0.4-6c2,0,4,0,6,0c0.6,0,4.1-0.5,4.5,0c0.8,0.9,0,6.6,0,7.8
			c0,4.6,0,9.2,0,13.9c0,0.9,0.5,6-0.4,6C77.5,63.5,74,63.5,70.5,63.5"/>
		<path id="path229_1_" fill="none" d="M70.5,63.5c0-7.2,0-14.4,0-21.6c0-0.9-0.5-6,0.4-6c2,0,4,0,6,0c0.6,0,4.1-0.5,4.5,0
			c0.8,0.9,0,6.6,0,7.8c0,4.6,0,9.2,0,13.9c0,0.9,0.5,6-0.4,6C77.5,63.5,74,63.5,70.5,63.5"/>
		<path id="path231_1_" d="M68.4,88.9c0,0.7,0.3,4.9-0.2,4.9c-2.3,0-4.6,0-6.9,0c-3.2,0-6.4,0-9.6,0c-0.8,0-4.8,0.6-5.3,0
			c-0.4-0.4,0-4.9,0.2-4.9c2.3,0,4.6,0,6.9,0C58.5,88.9,63.4,88.9,68.4,88.9"/>
		<path id="path233_1_" fill="none" d="M68.4,88.9c0,0.7,0.3,4.9-0.2,4.9c-2.3,0-4.6,0-6.9,0c-3.2,0-6.4,0-9.6,0
			c-0.8,0-4.8,0.6-5.3,0c-0.4-0.4,0-4.9,0.2-4.9c2.3,0,4.6,0,6.9,0C58.5,88.9,63.4,88.9,68.4,88.9"/>
		<path id="path235_1_" d="M75.1,60.4c3.8,0,3.8-6,0-6C71.3,54.4,71.3,60.4,75.1,60.4"/>
		<path id="path237_1_" fill="none" d="M75.1,60.4c3.8,0,3.8-6,0-6C71.3,54.4,71.3,60.4,75.1,60.4"/>
		<path id="path239_1_" fill="none" d="M75.1,60.4c3.8,0,3.8-6,0-6C71.3,54.4,71.3,60.4,75.1,60.4"/>
		<path id="path241_1_" fill="#FFFFFF" d="M75.1,58.1c0.6-0.2,1-1.1,0.1-1.2C74.2,56.7,74.4,57.8,75.1,58.1"/>
		<line id="line243_1_" fill="none" x1="65.2" y1="61.8" x2="65.2" y2="27.1"/>
		<path id="path245_1_" d="M69.4,45.5c7.6-0.2,7.7-11.9,0-11.9C61.8,33.6,61.8,45.2,69.4,45.5"/>
		<path id="path247_1_" d="M74.9,39.5c-0.1,1.5-0.6,3-1.8,4c-1,0.8-4,1.2-3.7,2.4c3.5-0.1,6.3-2.9,6.4-6.4
			C75.5,39.5,75.2,39.4,74.9,39.5"/>
		<path id="path249_1_" d="M69.4,34.1c1.5,0.1,3,0.6,4,1.8c0.8,1,1.2,3.9,2.4,3.6c-0.1-3.5-2.9-6.3-6.4-6.4
			C69.4,33.4,69.3,33.8,69.4,34.1"/>
		<path id="path251_1_" d="M63.9,39.5c0.1-1.5,0.6-3,1.8-4c1-0.8,3.9-1.2,3.6-2.4c-3.5,0.1-6.3,2.9-6.4,6.4
			C63.3,39.5,63.7,39.6,63.9,39.5"/>
		<path id="path253_1_" d="M69.4,45c-1.5-0.1-3-0.6-4-1.8c-0.8-1-1.2-4-2.4-3.7c0.1,3.5,2.9,6.3,6.4,6.4
			C69.4,45.6,69.5,45.3,69.4,45"/>
		<path id="path255_1_" fill="none" d="M69.4,45.5c7.6-0.2,7.7-11.9,0-11.9C61.8,33.6,61.8,45.2,69.4,45.5"/>
		<path id="path257_1_" fill="#FFFFFF" d="M69.4,40.8c1.6-0.1,1.6-2.5,0-2.5C67.8,38.3,67.9,40.6,69.4,40.8"/>
		<path id="path259_1_" d="M68.4,104.5c-3.5,2.3-7.1,3.2-11.2,3.7c-3.9,0.4-7.8,0.6-11,3.1c0-1.1-0.7-6.1,0-6.8c0.7-0.6,4.9,0,5.8,0
			C57.4,104.5,62.9,104.5,68.4,104.5"/>
		<path id="path261_1_" d="M73.9,105.6c0-4.6,0-9.2,0-13.7c0-2,0-4,0-6c0,0.1-5.2-0.5-5.5-0.1c-0.5,0.5,0,3.7,0,4.4
			c0,3.1,0,6.2,0,9.3c0,2,0,4,0,6C68.4,105.7,73.3,105.6,73.9,105.6"/>
		<path id="path263_1_" fill="none" d="M73.9,105.6c0-4.6,0-9.2,0-13.7c0-2,0-4,0-6c0,0.1-5.2-0.5-5.5-0.1c-0.5,0.5,0,3.7,0,4.4
			c0,3.1,0,6.2,0,9.3c0,2,0,4,0,6C68.4,105.7,73.3,105.6,73.9,105.6"/>
		<path id="path265_1_" d="M88.2,85.2c0,6.1,0,12.2,0,18.3c0,1.5-5,0.7-6.4,0.7c-2.2,0-4.4,0-6.5,0c-0.5,0-3.3,0.3-3.7,0
			c-0.9-0.8,0-6.7,0-7.9c0-3.5,0-7,0-10.5c0-1.5,5-0.7,6.4-0.7C81.4,85.2,84.8,85.2,88.2,85.2"/>
		<path id="path269_1_" d="M90,117.2c0.5-1.5-0.8-1.1-1.7-1.1c-2,0-4.1,0-6.1,0c-5.9,0-11.8,0-17.7,0c-3.9,0-7.8,0-11.7,0
			c-0.6,0,0.1,0.9-0.2,1.1c-0.5,0.2-1.8,0-2.3,0c-2.4,0-4.9,0-7.3,0c1.2-3.2,2.7-6.3,6.2-7.5c3.1-1,6.3-1.2,9.5-1.7
			c6.9-1.1,12.7-4.2,14.9-11.2c0.9-2.9,1-6.5,3.3-8.8c1.9-1.9,6.3-1.5,7.7,0.8c1.7,2.8,2,6.2,3,9.2c1,3.1,3.4,5.2,5.6,7.5
			c3.1,3.1,5.8,7.3,6.2,11.7C96.3,117.2,93.1,117.2,90,117.2"/>
		<path id="path267_1_" fill="none" d="M88.2,85.7c0,5.9,0,11.9,0,17.8c0,1.5-4.3,0.7-5.5,0.7c-1.9,0-3.7,0-5.6,0
			c-0.5,0-2.8,0.3-3.1,0c-0.8-0.8,0-6.5,0-7.7c0-3.4,0-6.8,0-10.2c0-1.5,4.3-0.7,5.5-0.7C82.4,85.7,85.3,85.7,88.2,85.7"/>
		<path id="path271_1_" d="M90,116.7c-0.2-0.2-0.4-0.4-0.6-0.6c-0.6,2.1,2.6,0.7,0.6-0.6c0.2,0.2,0.4,0.4,0.6,0.6
			C90.2,115,89.7,115.7,90,116.7"/>
		<path id="path273_1_" d="M53.1,116.1c-0.2,0.2-0.4,0.4-0.6,0.6c6.3,0,12.7,0,19,0c4.4,0,8.8,0,13.1,0c1.4,0,5.2,0.8,5.2-0.9
			c0-0.6-17.5-0.3-19-0.3c-4.4,0-8.8,0-13.1,0c-1.3,0-4.9-0.7-5.8,0.6c0.2-0.2,0.4-0.4,0.6-0.6C51.4,115.9,52.2,116.4,53.1,116.1"/>
		<path id="path275_1_" d="M52.6,117.8c2-1.3-1.2-2.7-0.6-0.6c0.2-0.2,0.4-0.4,0.6-0.6c-0.3,1,0.2,1.7,0.6,0.6
			C52.9,117.4,52.7,117.6,52.6,117.8"/>
		<path id="path277_1_" d="M42.4,117.1c0.6,1.3,2.9,0.7,4,0.7c0.9,0,5.5,0.6,6.1,0c1.6-1.6-3.2-1.2-3.5-1.2c-2,0-4,0-6.1,0
			c0.2,0.2,0.3,0.5,0.6,0.7c-0.7-0.4-1.3-0.4-1.4,0.5c0.3,0,0.5,0,0.8,0C42.8,117.6,42.6,117.3,42.4,117.1"/>
		<path id="path279_1_" d="M69.4,103c-4.7,3.7-9.6,4.2-15.3,5c-6.1,0.8-9.6,3.3-11.7,9.1c1.6,0.9,1.5-1.1,2.1-2.1
			c0.7-1.3,1.4-2.4,2.6-3.4c2.1-1.8,5.1-2.2,7.8-2.5c5.7-0.6,10.7-1.6,15.3-5.2C69.9,103.6,69.7,103.2,69.4,103"/>
		<path id="path281_1_" d="M80.4,86.3c-4.6,0.1-5.9,4-6.7,7.9c-0.4,1.7-0.9,3.5-1.7,5.1c-0.6,1.3-3.4,3.6-1.9,4.5
			c2.7-2.7,3.9-6,4.8-9.6c0.5-1.8,0.7-3.5,1.7-5.1C77.6,87.6,80.9,88,80.4,86.3"/>
		<path id="path283_1_" d="M91.5,103c-2.6-2.6-3.5-5.6-4.4-9c-0.9-3.8-2.1-7.6-6.7-7.7c-0.5,1.7,2.8,1.4,3.7,2.8
			c1,1.6,1.4,3.3,1.8,5.1c0.9,3.7,2.1,6.9,4.8,9.6C91,103.6,91.3,103.3,91.5,103"/>
		<path id="path285_1_" d="M99.5,117.8c1.9-1.3-1.4-6.9-2.3-8.4c-0.6-1-4.3-6.5-5.7-6.4c-2,0.2,1.2,2.7,1.5,3.1
			c0.9,0.9,1.8,2,2.6,3.1c1.7,2.4,3,5.1,3.4,8.1c0.2-0.2,0.4-0.4,0.6-0.6c-0.2,0.8-0.1,1.3,0.6,1.2c0-0.2,0-0.4,0-0.6
			C99.9,117.4,99.7,117.6,99.5,117.8"/>
		<path id="path287_1_" d="M89.4,117.2c0.8,1.2,3.5,0.6,4.7,0.6c0.8,0,4.9,0.6,5.4,0c1.6-1.6-3.2-1.2-3.5-1.2c-2,0-4,0-6,0
			c0.2,0.2,0.4,0.4,0.6,0.6c-1-0.3-1.7,0.2-0.6,0.6C89.8,117.6,89.6,117.4,89.4,117.2"/>
		<path id="path309_1_" fill="#FFFFFF" d="M80.4,92.7c1.1-0.2,1.3-1.9,0-1.9C79.1,90.7,79.3,92.5,80.4,92.7"/>
		<path id="path311_1_" d="M65.2,10.3c0-0.7,0.4-2.3-0.4-2.3c-1.4,0-2.9,0-4.3,0c-1.9,0-3.8,0-5.7,0c-0.4,0-2.5-0.3-2.9,0
			c-0.3,0.3-0.3,2.3,0.4,2.3c1.4,0,2.9,0,4.3,0C59.5,10.3,62.3,10.3,65.2,10.3"/>
		<path id="path313_1_" fill="#FFFFFF" d="M53.8,10.2c3.1,0,6.6,0,9.5,0C60.1,10.2,56.9,10.2,53.8,10.2"/>
		<line id="line315_1_" fill="none" x1="53.8" y1="10.2" x2="63.3" y2="10.2"/>
		<path id="svg_3_1_" d="M46.6,61.2c0,0,2.2-1.9,5.5,0.1c3.2,2,1.6,3.1,1.6,3.1c0,0-4.2-0.7-4.2-0.8C49.5,63.6,46.6,61.2,46.6,61.2z
			"/>
	</g>
</g>
</svg>
