<?xml version="1.0" encoding="utf-8"?>
<!-- Generator: Adobe Illustrator 18.0.0, SVG Export Plug-In . SVG Version: 6.00 Build 0)  -->
<!DOCTYPE svg PUBLIC "-//W3C//DTD SVG 1.1//EN" "http://www.w3.org/Graphics/SVG/1.1/DTD/svg11.dtd">
<svg version="1.1" id="Layer_1" xmlns="http://www.w3.org/2000/svg" xmlns:xlink="http://www.w3.org/1999/xlink" x="0px" y="0px"
	 viewBox="0 0 60 60" enable-background="new 0 0 60 60" xml:space="preserve">
<g id="xBb3Ac_1_" opacity="0.54">
	<g>
		<g>
			<path fill="#FF0000" d="M58.6,41.7c-0.1-0.7-0.3-1.3-0.4-2C57.3,33.8,52,29.1,46,28.8c-8.7-0.4-15.2,7.1-13.5,15.6
				c1.1,5.6,6.2,10.1,11.9,10.4c0.2,0,0.5,0.2,0.7,0.2c-0.9,0-1.8,0-2.7,0c-0.2,0-0.4-0.1-0.6-0.1c-3.6-0.5-6.6-2-8.9-4.8
				c-1.1-1.3-2-2.9-3-4.3c0.1-0.1,0.1-0.1,0.1-0.1c-0.1,0.2-0.2,0.4-0.3,0.7c-1.8,3.8-4.7,6.5-8.7,7.8c-1.1,0.4-2.2,0.5-3.3,0.8
				c-0.7,0-1.3,0-2,0c1.3-0.3,2.7-0.5,4-0.9c9.2-3.3,11.6-15.2,4.3-21.7c-4-3.6-8.7-4.5-13.7-2.5C5.3,31.9,2.6,35.6,2,40.7
				c-0.2,1.3,0,2.7,0.1,4.1c-0.2-1.1-0.5-2.1-0.7-3.1c0-0.9,0-1.9,0-2.8c0.3-1.2,0.5-2.5,0.9-3.6c2.3-6.5,8.9-10.5,15.8-9.6
				c0.1,0,0.1,0,0.3,0c-2.5-3.3-3.6-6.9-3.1-10.9c0.5-4,2.4-7.3,5.6-9.8c-2.6,2.7-4,5.9-3.9,9.7c0.1,3.8,1.6,7,4.5,9.5
				c5.5,4.7,13.1,4.1,17.8-0.6c4.9-4.8,5.3-13.1-0.2-18.5c4.3,2.7,9,12.2,2.6,20.6c0.8,0,1.7,0,2.6,0c7.2,0.2,13.1,5.5,14.1,12.6
				c0,0.2,0.1,0.5,0.2,0.7C58.6,39.8,58.6,40.8,58.6,41.7z M30,35.4c1.6,0,3-1.3,3-2.9c0-1.6-1.4-3-3-3c-1.6,0-2.9,1.4-2.9,3
				C27.1,34.1,28.4,35.4,30,35.4z"/>
		</g>
	</g>
</g>
</svg>
