<?xml version="1.0" encoding="utf-8"?>
<!-- Generator: Adobe Illustrator 18.0.0, SVG Export Plug-In . SVG Version: 6.00 Build 0)  -->
<!DOCTYPE svg PUBLIC "-//W3C//DTD SVG 1.1//EN" "http://www.w3.org/Graphics/SVG/1.1/DTD/svg11.dtd">
<svg version="1.1" id="Layer_1" xmlns="http://www.w3.org/2000/svg" xmlns:xlink="http://www.w3.org/1999/xlink" x="0px" y="0px"
	 viewBox="-143 -143 346 346" enable-background="new -143 -143 346 346" xml:space="preserve">
<g id="xBb3Ac_1_" opacity="0.54">
	<g>
		<g>
			<path fill="#FF0000" d="M199.5,84.1c-0.8-4-1.7-7.9-2.3-11.9C191.8,36.9,160.8,9,125.1,7.4c-51.4-2.5-90,41.9-80.3,92.4
				c6.4,33.4,36.6,59.8,70.7,62c1.5,0.1,2.9,0.9,4.3,1.4c-5.3,0-10.6,0-15.9,0c-1.3-0.3-2.5-0.7-3.8-0.9c-21.1-3-39.1-12.1-53-28.2
				c-6.8-7.8-11.9-17.1-17.8-25.6c0.7-0.6,0.6-0.5,0.5-0.4c-0.6,1.3-1.3,2.6-1.9,3.9C17,134.7-0.2,150.3-24.1,158.4
				c-6.4,2.1-13.1,3.1-19.7,4.7c-4,0-8,0-12,0c7.9-1.7,16-2.7,23.6-5.4C22.3,138.2,36.6,67.3-6.4,28.7C-30.3,7.3-58.2,2.2-88,14.1
				c-28.6,11.4-44.5,33.7-48,64.2c-0.9,7.8,0.3,15.8,0.5,24.1c-1.4-6.3-2.7-12.3-4-18.3c0-5.6,0-11.2,0-16.8
				c1.8-7.2,3-14.6,5.5-21.6C-120.2,7-81.5-16.4-40.5-11.1c0.4,0,0.8,0,1.9,0c-14.8-19.5-21.2-41-18.3-64.8
				c2.8-23.9,14.1-43.3,33.1-58.2C-39.4-118-47.8-98.9-47.3-76.4C-46.7-53.9-38-34.8-20.8-20C11.9,8.1,56.8,4.3,85-23.9
				c28.8-28.7,31.3-77.6-1.3-110c25.7,15.8,53.1,72.1,15.7,122.1c5,0,10.2-0.2,15.4,0c42.5,1.4,77.5,32.7,83.8,74.8
				c0.2,1.4,0.6,2.8,0.9,4.2C199.5,72.9,199.5,78.5,199.5,84.1z M30,46.7c9.7,0,17.5-7.7,17.6-17.4c0.1-9.7-8-17.8-17.7-17.7
				c-9.6,0.1-17.5,8.1-17.4,17.6C12.5,38.9,20.3,46.7,30,46.7z"/>
		</g>
	</g>
</g>
<rect x="-50.2" y="166.1" fill="none" width="160.5" height="66"/>
<text transform="matrix(1 0 0 1 -25.5112 193.1042)" opacity="0.54" fill="#FF0000" font-family="'Silom'" font-size="36">VIRAL</text>
</svg>
