<?xml version="1.0" encoding="utf-8"?>
<!-- Generator: Adobe Illustrator 18.0.0, SVG Export Plug-In . SVG Version: 6.00 Build 0)  -->
<!DOCTYPE svg PUBLIC "-//W3C//DTD SVG 1.1//EN" "http://www.w3.org/Graphics/SVG/1.1/DTD/svg11.dtd">
<svg version="1.1" id="Layer_1" xmlns="http://www.w3.org/2000/svg" xmlns:xlink="http://www.w3.org/1999/xlink" x="0px" y="0px"
	 viewBox="0 0 900 900" enable-background="new 0 0 900 900" xml:space="preserve">
<g id="xBb3Ac_1_" opacity="0.54">
	<g>
		<g>
			<path fill="#FF0000" d="M878.5,625.9c-1.9-10-4.2-20-5.7-30.1C859,506.7,780.7,436.2,690.4,432c-130-6.2-227.4,105.9-203,233.5
				C503.7,750,579.9,816.7,666,822.1c3.7,0.2,7.3,2.3,10.9,3.5c-13.4,0-26.9,0-40.3,0c-3.2-0.7-6.4-1.7-9.7-2.2
				C573.6,815.7,528,792.7,493,752c-17.1-19.8-30.2-43.1-44.9-64.6c1.7-1.5,1.4-1.3,1.2-1.1c-1.6,3.3-3.2,6.6-4.8,9.9
				c-27.4,57.5-70.9,97.1-131.2,117.5c-16.1,5.4-33.1,7.9-49.7,11.8c-10.1,0-20.2,0-30.3,0c19.9-4.4,40.5-6.8,59.6-13.6
				c137.6-49.3,173.7-228.4,65.1-325.9c-60.3-54.2-131-67.2-206.2-37.1C79.6,477.8,39.4,534.1,30.4,611.2c-2.3,19.7,0.7,40,1.2,61
				c-3.5-15.9-6.9-31.1-10.2-46.3c0-14.1,0-28.2,0-42.4c4.5-18.2,7.5-36.9,13.8-54.5c35.2-97.9,133-157,236.5-143.7c1,0.1,2,0,4.8,0
				c-37.4-49.2-53.5-103.7-46.3-163.9c7.2-60.4,35.6-109.4,83.6-147c-39.2,40.8-60.5,89-59.1,145.8c1.4,57,23.5,105.2,66.8,142.5
				c82.8,71.2,196.2,61.5,267.6-9.7c72.8-72.6,79.1-196.1-3.3-278c64.9,39.9,134.3,182.3,39.7,308.7c12.7,0,25.9-0.4,39,0.1
				c107.5,3.6,195.9,82.7,211.7,189.1c0.5,3.6,1.6,7.1,2.4,10.7C878.5,597.7,878.5,611.8,878.5,625.9z M449.9,531.4
				c24.5,0,44.3-19.5,44.5-43.9c0.2-24.6-20.3-45-44.8-44.8c-24.2,0.2-44.2,20.4-44,44.6C405.8,511.7,425.4,531.3,449.9,531.4z"/>
			<path fill="#FF0000" d="M336.5,352c60.6-56.4,169.9-56.9,228.5-1.3c-9.6,6.5-18.7,13-28.3,18.8c-1.8,1.1-5.7-0.1-7.9-1.4
				c-52.2-31.1-104.1-30.9-155.9,1.1c-2.2,1.3-6.1,2.3-8,1.3C355.5,364.8,346.5,358.6,336.5,352z"/>
			<path fill="#FF0000" d="M402.8,655c-92.2-27-140-118.7-125.4-195.3c10.3,4.4,20.5,8.4,30.3,13.3c2.1,1,3.6,5.3,3.6,8.1
				c0.3,62.4,29.2,106.4,85,133.5c3,1.5,6,5.9,6.3,9.3C403.4,633.8,402.8,643.7,402.8,655z"/>
			<path fill="#FF0000" d="M504.1,653.4c-0.6-4.4-0.8-8.1-1.5-11.6c-3.3-15.9,0.5-25.4,17-34.4c48.8-26.6,72.7-69.9,72.4-125.7
				c0-7.7,2-11.9,9.1-14.3c6.3-2.2,12.4-5.1,18.6-7.6c1.8-0.7,3.8-1,5.8-1.5C642.8,535.3,590.4,629.6,504.1,653.4z"/>
		</g>
	</g>
</g>
</svg>
