<?xml version="1.0" encoding="utf-8"?>
<!-- Generator: Adobe Illustrator 18.0.0, SVG Export Plug-In . SVG Version: 6.00 Build 0)  -->
<!DOCTYPE svg PUBLIC "-//W3C//DTD SVG 1.1//EN" "http://www.w3.org/Graphics/SVG/1.1/DTD/svg11.dtd">
<svg version="1.1" id="Layer_1" xmlns="http://www.w3.org/2000/svg" xmlns:xlink="http://www.w3.org/1999/xlink" x="0px" y="0px"
	 viewBox="0 0 80 80" enable-background="new 0 0 80 80" xml:space="preserve">
<g id="Layer_1_1_">
	<g id="XMLID_1_">
		<g>
			<path fill="#28ABE2" d="M74.8,18.4c-1.9,2.9-4.4,5.4-7.1,7.4c0,0.6,0.1,1.2,0.1,1.8c0,18.9-14.4,40.6-40.6,40.6
				c-8.1,0-15.6-2.4-21.9-6.4C6.3,62,7.4,62,8.6,62c6.7,0,12.8-2.3,17.8-6.1C20.1,55.8,14.9,51.7,13,46c0.9,0.2,1.8,0.2,2.7,0.2
				c1.3,0,2.6-0.2,3.8-0.5C13,44.4,8,38.7,8,31.7c0-0.1,0-0.1,0-0.2c1.9,1.1,4.1,1.7,6.5,1.8c-3.9-2.5-6.4-6.9-6.4-11.8
				c0-2.6,0.7-5.1,1.9-7.2c7.1,8.6,17.6,14.4,29.4,14.9c-0.2-1.1-0.4-2.1-0.4-3.2c0-7.9,6.4-14.3,14.3-14.3c4.1,0,7.8,1.7,10.4,4.5
				c3.2-0.6,6.3-1.8,9.1-3.5c-1.1,3.4-3.4,6.1-6.3,7.9C69.4,20.3,72.2,19.5,74.8,18.4z"/>
		</g>
	</g>
</g>
</svg>
